<?xml version="1.0" encoding="UTF-8" standalone="no"?>
<!-- Created with Inkscape (http://www.inkscape.org/) -->

<svg
   width="512"
   height="512"
   viewBox="0 0 512 512"
   version="1.1"
   id="svg1"
   xml:space="preserve"
   inkscape:version="1.3.1 (91b66b0783, 2023-11-16)"
   sodipodi:docname="Zeichnung.svg"
   inkscape:export-filename="Zeichnung.png"
   inkscape:export-xdpi="96"
   inkscape:export-ydpi="96"
   xmlns:inkscape="http://www.inkscape.org/namespaces/inkscape"
   xmlns:sodipodi="http://sodipodi.sourceforge.net/DTD/sodipodi-0.dtd"
   xmlns="http://www.w3.org/2000/svg"
   xmlns:svg="http://www.w3.org/2000/svg"><sodipodi:namedview
     id="namedview1"
     pagecolor="#ffffff"
     bordercolor="#000000"
     borderopacity="0.25"
     inkscape:showpageshadow="2"
     inkscape:pageopacity="0.0"
     inkscape:pagecheckerboard="0"
     inkscape:deskcolor="#d1d1d1"
     inkscape:document-units="px"
     inkscape:zoom="0.5614041"
     inkscape:cx="-53.437444"
     inkscape:cy="-182.57793"
     inkscape:window-width="1920"
     inkscape:window-height="1009"
     inkscape:window-x="-8"
     inkscape:window-y="56"
     inkscape:window-maximized="1"
     inkscape:current-layer="layer1" /><defs
     id="defs1" /><g
     inkscape:label="Ebene 1"
     inkscape:groupmode="layer"
     id="layer1"><rect
       style="fill:#e6edef;fill-opacity:1"
       id="rect1"
       width="495.18698"
       height="488.06201"
       x="11.578113"
       y="11.578113"
       ry="31.171843" /><path
       d="m 258.99219,425.53906 0.23437,59.49805 c 62.79924,3.96488 129.55217,-19.59165 175.58203,-63.46484 28.6468,-27.30458 28.49178,-26.22236 6.64649,-46.4336 l -18.88867,-17.47461 -17.11524,16.1211 c -42.6584,40.17574 -96.3381,56.47219 -146.45898,51.7539 z"
       style="fill:#38302e;stroke-width:2.56518"
       id="path78" /><path
       d="m 116.05273,313.2207 -55.410152,25.99414 c 27.318523,69.67799 88.538502,125.57669 170.818362,142.21289 7.48843,1.51409 15.10664,2.50941 22.77929,3.17579 L 254.00586,425.0625 C 195.2697,417.86038 142.15751,381.5373 118.53711,320.49805 c -0.94565,-2.44373 -1.64587,-4.84949 -2.48438,-7.27735 z"
       style="fill:#38302e;stroke-width:2.56518"
       id="path75" /><path
       d="M 128.26172,170.98437 73.960937,144.75 c -2.464043,4.43666 -4.8426,8.95233 -7.033203,13.62695 -27.531253,58.75015 -28.153695,121.46204 -8.070312,176.16992 l 55.576168,-26.07031 c -16.510976,-51.84792 -8.8815,-99.66291 13.82813,-137.49219 z"
       style="fill:#38302e;stroke-width:2.56518"
       id="path72" /><path
       d="m 285.38086,87.648437 -0.2832,-58.861328 C 281.9338,28.68382 278.7705,28.612692 275.60937,28.632812 196.30775,29.137573 118.61771,68.42624 76.46875,140.42773 l 54.37109,26.26954 C 163.027,116.64868 221.98223,85.295587 285.38086,87.648437 Z"
       style="fill:#38302e;stroke-width:2.56518"
       id="path69" /><path
       d="m 290.08008,29.025391 0.28515,59.007812 c 37.00139,2.39629 75.27483,16.180797 110.43164,44.564457 25.00232,20.18549 20.82708,20.31962 42.35547,-1.375 L 461.03516,113.20313 440.23828,93.386719 C 397.52883,52.691614 343.92645,31.891469 290.08008,29.025391 Z"
       style="fill:#38302e;stroke-width:2.56518"
       id="path66" /><path
       id="path60"
       style="fill:#38302e"
       d="M 270.38672 149.51172 C 269.44411 149.50578 268.50776 149.51154 267.57812 149.5293 C 231.21159 150.2238 204.73498 168.84477 189.26953 194.63281 L 255.31641 226.30859 L 256.80859 227.02539 L 271.54883 234.09375 L 277.32227 236.86328 L 285.50781 240.78906 L 285.4707 232.98242 L 285.44336 227.47656 L 285.07422 150.66797 C 283.07365 150.39307 281.11176 150.05669 279.04297 149.89062 C 276.10035 149.65445 273.21456 149.52954 270.38672 149.51172 z " /><path
       d="m 252.5957,248.64062 -74.94531,35.69532 c 9.21913,32.8456 33.8182,60.93434 75.45117,69.3125 z"
       style="fill:#38302e"
       id="path55" /><path
       id="path53"
       style="fill:#38302e"
       d="M 186.85156 199 C 173.9377 223.07448 170.13509 252.51072 176.36328 279.42969 L 252.56836 243.13477 L 257.54102 240.76562 L 265.76758 236.84766 L 257.50195 232.88477 L 252.50781 230.49023 L 186.85156 199 z " /><path
       d="m 257.64844,263.17773 14.71679,7.05664 13.25391,-6.3125 -0.084,-17.59179 -13.99414,-6.71289 -13.97461,6.65625 z"
       style="fill:#38302e"
       id="path43" /><path
       id="path40"
       style="fill:#38302e"
       d="M 257.67578 268.7168 L 257.7168 277.21094 L 257.74219 282.7207 L 258.08984 354.62305 C 268.79675 356.36779 273.09261 356.16958 291.74219 353.13086 C 319.90815 348.54157 340.26155 333.9335 353.16602 314.51758 L 272.35742 275.75977 L 266.58203 272.98828 L 257.67578 268.7168 z " /><path
       id="path31"
       style="fill:#38302e"
       d="M 367.4668 230.46094 L 290.61719 267.0625 L 285.64648 269.42969 L 278.14062 273.00586 L 355.76367 310.23633 C 369.50814 286.91926 373.29434 257.6516 367.4668 230.46094 z M 285.8457 271.69531 C 285.8507 271.70716 285.85615 271.71872 285.86133 271.73047 C 285.85614 271.71871 285.85071 271.70717 285.8457 271.69531 z " /><path
       id="path24"
       style="fill:#38302e"
       d="M 290.06055 151.38086 L 290.41602 225.18359 L 290.44141 230.61523 L 290.5918 261.55469 L 366.21484 225.53516 C 356.98745 190.01281 331.25284 159.06686 290.06055 151.38086 z " /></g></svg>
