<?xml version="1.0" encoding="UTF-8" standalone="no"?>
<!-- Created with Inkscape (http://www.inkscape.org/) -->

<svg
   width="512"
   height="512"
   viewBox="0 0 512 512"
   version="1.1"
   id="svg1"
   xml:space="preserve"
   inkscape:version="1.3.1 (91b66b0783, 2023-11-16)"
   sodipodi:docname="Zeichnung.svg"
   inkscape:export-filename="Zeichnung.png"
   inkscape:export-xdpi="96"
   inkscape:export-ydpi="96"
   xmlns:inkscape="http://www.inkscape.org/namespaces/inkscape"
   xmlns:sodipodi="http://sodipodi.sourceforge.net/DTD/sodipodi-0.dtd"
   xmlns="http://www.w3.org/2000/svg"
   xmlns:svg="http://www.w3.org/2000/svg"><sodipodi:namedview
     id="namedview1"
     pagecolor="#ffffff"
     bordercolor="#000000"
     borderopacity="0.25"
     inkscape:showpageshadow="2"
     inkscape:pageopacity="0.0"
     inkscape:pagecheckerboard="0"
     inkscape:deskcolor="#d1d1d1"
     inkscape:document-units="px"
     inkscape:zoom="1.1228082"
     inkscape:cx="52.992132"
     inkscape:cy="189.25761"
     inkscape:window-width="1920"
     inkscape:window-height="1009"
     inkscape:window-x="-8"
     inkscape:window-y="56"
     inkscape:window-maximized="1"
     inkscape:current-layer="layer1" /><defs
     id="defs1" /><g
     inkscape:label="Ebene 1"
     inkscape:groupmode="layer"
     id="layer1"><rect
       style="fill:#e6edef;fill-opacity:1"
       id="rect1"
       width="495.18698"
       height="488.06201"
       x="11.578113"
       y="11.578113"
       ry="31.171843" /><path
       style="fill:#38302e;stroke-width:2.56518;fill-opacity:1"
       d="M 231.46134,481.42859 C 83.300318,451.47185 3.2409903,294.28025 66.927609,158.37658 132.79496,17.819325 325.68727,-15.761419 440.23808,93.386717 l 20.79669,19.815823 -17.88245,18.02056 c -21.52845,21.69468 -17.35357,21.55927 -42.35593,1.37374 C 253.72623,13.860555 51.876609,148.23273 118.53804,320.49749 c 44.33987,114.58198 192.59381,142.1169 286.91222,53.2877 l 17.11683,-16.12067 18.88702,17.47429 c 21.84533,20.21128 22.00035,19.12832 -6.64649,46.43294 -52.89758,50.41912 -133.16554,74.04671 -203.34628,59.85684 z M 256.54997,354.40385 C 132.2206,333.21218 153.49111,139.81165 279.04279,149.88971 c 113.51748,9.11211 124.50991,185.02408 12.70022,203.24205 -19.61487,3.196 -23.15494,3.32396 -35.19304,1.27209 z"
       id="path18" /></g></svg>
