<?xml version="1.0" encoding="UTF-8" standalone="no"?>
<!-- Created with Inkscape (http://www.inkscape.org/) -->

<svg
   width="512"
   height="512"
   viewBox="0 0 512 512"
   version="1.1"
   id="svg1"
   xml:space="preserve"
   inkscape:version="1.3.1 (91b66b0783, 2023-11-16)"
   sodipodi:docname="Zeichnung_circular.svg"
   inkscape:export-filename="Zeichnung.png"
   inkscape:export-xdpi="96"
   inkscape:export-ydpi="96"
   xmlns:inkscape="http://www.inkscape.org/namespaces/inkscape"
   xmlns:sodipodi="http://sodipodi.sourceforge.net/DTD/sodipodi-0.dtd"
   xmlns="http://www.w3.org/2000/svg"
   xmlns:svg="http://www.w3.org/2000/svg"><sodipodi:namedview
     id="namedview1"
     pagecolor="#ffffff"
     bordercolor="#000000"
     borderopacity="0.25"
     inkscape:showpageshadow="2"
     inkscape:pageopacity="0.0"
     inkscape:pagecheckerboard="0"
     inkscape:deskcolor="#d1d1d1"
     inkscape:document-units="px"
     inkscape:zoom="1.1228082"
     inkscape:cx="268.07784"
     inkscape:cy="230.22632"
     inkscape:window-width="1920"
     inkscape:window-height="1009"
     inkscape:window-x="-8"
     inkscape:window-y="56"
     inkscape:window-maximized="1"
     inkscape:current-layer="layer1" /><defs
     id="defs1" /><g
     inkscape:label="Ebene 1"
     inkscape:groupmode="layer"
     id="layer1"><circle
       style="fill:#e6edef;fill-opacity:1;stroke-width:1.15528"
       id="path1"
       cx="256"
       cy="256"
       r="248.4841" /><g
       id="g1"
       transform="translate(11.993162,2.9589892)"><path
         d="m 247.016,337.11243 0.11694,29.68769 c 31.33488,1.97835 64.64253,-9.77563 87.61001,-31.667 14.29386,-13.62414 14.21651,-13.08414 3.31639,-23.16893 l -9.42486,-8.71929 -8.53998,8.04393 c -21.28522,20.04646 -48.06973,28.17788 -73.0785,25.8236 z"
         style="fill:#38302e;stroke-width:1.27995"
         id="path78" /><path
         d="m 175.69363,281.06904 -27.64795,12.97027 c 13.63109,34.76717 44.17797,62.65889 85.23308,70.95984 3.73649,0.75548 7.53774,1.25212 11.36616,1.58462 l -0.11695,-29.70913 c -29.30752,-3.59363 -55.80886,-21.71773 -67.59471,-52.17443 -0.47185,-1.21934 -0.82124,-2.41974 -1.23963,-3.63117 z"
         style="fill:#38302e;stroke-width:1.27995"
         id="path75" /><path
         d="m 181.78554,210.09751 -27.09442,-13.09014 c -1.22948,2.21376 -2.4163,4.46694 -3.50935,6.79943 -13.73724,29.3145 -14.04782,60.6058 -4.02683,87.90334 l 27.73079,-13.00828 c -8.23847,-25.87051 -4.4316,-49.72871 6.89981,-68.60435 z"
         style="fill:#38302e;stroke-width:1.27995"
         id="path72" /><path
         d="m 260.18313,168.51546 -0.14131,-29.36999 c -1.57867,-0.0515 -3.15706,-0.087 -4.73436,-0.077 -39.56906,0.25186 -78.33399,19.85569 -99.36501,55.78221 l 27.12949,13.10769 c 16.0604,-24.9727 45.47723,-40.61692 77.11119,-39.44292 z"
         style="fill:#38302e;stroke-width:1.27995"
         id="path69" /><path
         d="m 262.52789,139.26437 0.14228,29.44307 c 18.46255,1.19568 37.55982,8.07372 55.10198,22.23629 12.47538,10.07193 10.39207,10.13886 21.13407,-0.68608 l 8.92297,-8.99119 -10.377,-9.88778 c -21.31069,-20.3056 -48.05662,-30.68423 -74.9243,-32.11431 z"
         style="fill:#38302e;stroke-width:1.27995"
         id="path66" /><path
         id="path60"
         style="fill:#38302e;stroke-width:0.498969"
         d="m 252.70152,199.38332 c -0.47034,-0.003 -0.93755,-9e-5 -1.40141,0.009 -18.14577,0.34654 -31.35678,9.63782 -39.07356,22.50526 l 32.95535,15.80523 0.74455,0.35767 7.35492,3.52689 2.88077,1.38191 4.08433,1.95884 -0.0185,-3.89527 -0.0136,-2.74725 -0.18419,-38.32512 c -0.99822,-0.13716 -1.97714,-0.30501 -3.0094,-0.38787 -1.46828,-0.11784 -2.9082,-0.18017 -4.3192,-0.18906 z" /><path
         d="m 243.82435,248.84558 -37.3954,17.81086 c 4.60007,16.38894 16.87424,30.40435 37.64781,34.58479 z"
         style="fill:#38302e;stroke-width:0.498969"
         id="path55" /><path
         id="path53"
         style="fill:#38302e;stroke-width:0.498969"
         d="m 211.02005,224.07644 c -6.44361,12.01242 -8.341,26.7002 -5.23332,40.13193 l 38.02398,-18.11004 2.4812,-1.18213 4.1048,-1.95495 -4.1243,-1.97735 -2.49192,-1.19481 z" /><path
         d="m 246.34551,256.09915 7.34322,3.52104 6.61329,-3.14974 -0.0419,-8.77776 -6.98264,-3.34953 -6.9729,3.32127 z"
         style="fill:#38302e;stroke-width:0.498969"
         id="path43" /><path
         id="path40"
         style="fill:#38302e;stroke-width:0.498969"
         d="m 246.35915,258.86297 0.0205,4.23831 0.0127,2.7492 0.17346,35.87705 c 5.34242,0.87057 7.48592,0.77167 16.79149,-0.74455 14.05394,-2.28992 24.20966,-9.57889 30.64859,-19.26684 l -40.321,-19.33895 -2.88174,-1.38288 z" /><path
         id="path31"
         style="fill:#38302e;stroke-width:0.498969"
         d="m 301.14147,239.77448 -38.34557,18.26305 -2.48024,1.18115 -3.74519,1.7844 38.7315,18.57685 c 6.85807,-11.6345 8.74727,-26.23815 5.8395,-39.80545 z m -40.7264,20.57467 c 0.002,0.006 0.005,0.0117 0.008,0.0175 -0.003,-0.006 -0.005,-0.0116 -0.008,-0.0175 z" /><path
         id="path24"
         style="fill:#38302e;stroke-width:0.498969"
         d="m 262.51815,200.31597 0.17737,36.82527 0.0127,2.71022 0.075,15.43784 37.73356,-17.97263 c -4.60418,-17.72456 -17.44495,-33.16563 -37.99863,-37.0007 z" /></g></g></svg>
